<?xml version="1.0" encoding="UTF-8"?>
<svg id="Layer_1" xmlns="http://www.w3.org/2000/svg" xmlns:xlink="http://www.w3.org/1999/xlink" version="1.1" viewBox="0 0 492 24">
  <!-- Generator: Adobe Illustrator 30.2.1, SVG Export Plug-In . SVG Version: 2.1.1 Build 1)  -->
  <defs>
    <style>
      .st0 {
        fill: none;
      }

      .st1 {
        fill: #fff;
      }

      .st2 {
        fill: #005128;
      }

      .st3 {
        clip-path: url(#clippath);
      }

      .st4 {
        fill: #00b67a;
      }
    </style>
    <clipPath id="clippath">
      <rect class="st0" x="87" y="2" width="106.7" height="20"/>
    </clipPath>
  </defs>
  <path class="st1" d="M9.2,13H3.6v3h6.4v2.1H1.3V6.5h8.4v2H3.6v2.4h5.6v2ZM19.3,18h-2.8l-1.5-2.6-1.5,2.6h-2.7l2.9-4.3-2.8-4.2h2.7l1.4,2.5,1.4-2.5h2.6l-2.8,4.1,2.9,4.4ZM28,12.5h-2.3c0-.3-.1-.6-.3-.9-.2-.3-.6-.5-1.2-.5-.8,0-1.3.4-1.5,1.1-.1.4-.2.9-.2,1.6s0,1.1.2,1.5c.3.7.8,1.1,1.5,1.1s.9-.1,1.1-.4c.2-.3.4-.6.4-1.1h2.3c0,.7-.3,1.3-.7,1.9-.7,1-1.7,1.5-3.1,1.5s-2.4-.4-3-1.2c-.6-.8-1-1.9-1-3.2s.4-2.6,1.1-3.4c.7-.8,1.7-1.2,3-1.2s1.9.2,2.6.7c.7.5,1.1,1.3,1.2,2.5ZM36.8,15.5c0,.5-.3,1-.8,1.5-.7.8-1.8,1.2-3.1,1.2s-2-.3-2.9-1c-.8-.7-1.2-1.8-1.2-3.4s.4-2.6,1.1-3.4c.8-.8,1.7-1.2,2.9-1.2s1.3.1,1.9.4c.6.3,1,.7,1.4,1.3.3.5.5,1.1.6,1.8,0,.4,0,1,0,1.7h-5.8c0,.9.3,1.5.8,1.8.3.2.7.3,1.1.3s.8-.1,1.1-.4c.2-.1.3-.3.4-.6h2.3ZM34.6,12.9c0-.6-.2-1-.5-1.3-.3-.3-.7-.5-1.2-.5s-.9.2-1.2.5c-.3.3-.5.8-.5,1.3h3.5ZM38.5,6.5h2.2v11.5h-2.2V6.5ZM42.9,6.5h2.2v11.5h-2.2V6.5ZM54.6,15.5c0,.5-.3,1-.8,1.5-.7.8-1.8,1.2-3.1,1.2s-2-.3-2.9-1c-.8-.7-1.2-1.8-1.2-3.4s.4-2.6,1.1-3.4c.8-.8,1.7-1.2,2.9-1.2s1.3.1,1.9.4c.6.3,1,.7,1.4,1.3.3.5.5,1.1.6,1.8,0,.4,0,1,0,1.7h-5.8c0,.9.3,1.5.8,1.8.3.2.7.3,1.1.3s.8-.1,1.1-.4c.2-.1.3-.3.4-.6h2.3ZM52.4,12.9c0-.6-.2-1-.5-1.3-.3-.3-.7-.5-1.2-.5s-.9.2-1.2.5c-.3.3-.5.8-.5,1.3h3.5ZM60.2,11.1c-.8,0-1.3.3-1.6,1-.1.3-.2.8-.2,1.3v4.6h-2.2v-8.5h2.1v1.2c.3-.4.6-.8.8-.9.5-.3,1-.5,1.7-.5s1.6.2,2.2.7c.6.5.8,1.2.8,2.3v5.7h-2.3v-5.2c0-.4,0-.8-.2-1-.2-.4-.6-.7-1.2-.7ZM69.9,16.4v1.7h-1.1c-1.1,0-1.8-.1-2.2-.5-.2-.3-.4-.6-.4-1.2v-5.2h-1.2v-1.6h1.2v-2.4h2.2v2.4h1.4v1.6h-1.4v4.5c0,.3,0,.6.1.7,0,0,.4.1.8.1h.2c0,0,.2,0,.2,0Z"/>
  <g class="st3">
    <g>
      <path class="st4" d="M107,2h-20v20h20V2Z"/>
      <path class="st4" d="M128.7,2h-20v20h20V2Z"/>
      <path class="st4" d="M150.3,2h-20v20h20V2Z"/>
      <path class="st4" d="M172,2h-20v20h20V2Z"/>
      <path class="st4" d="M193.7,2h-20v20h20V2Z"/>
      <path class="st1" d="M97,15.5l3-.8,1.3,3.9-4.3-3.1ZM104,10.4h-5.4l-1.6-5-1.6,5h-5.4l4.3,3.1-1.6,5,4.3-3.1,2.7-1.9,4.3-3.1Z"/>
      <path class="st1" d="M118.7,15.5l3-.8,1.3,3.9-4.3-3.1ZM125.7,10.4h-5.4l-1.6-5-1.6,5h-5.4l4.3,3.1-1.6,5,4.3-3.1,2.7-1.9,4.3-3.1Z"/>
      <path class="st1" d="M140.3,15.5l3-.8,1.3,3.9-4.3-3.1ZM147.3,10.4h-5.4l-1.6-5-1.6,5h-5.4l4.3,3.1-1.6,5,4.3-3.1,2.7-1.9,4.3-3.1Z"/>
      <path class="st1" d="M162,15.5l3-.8,1.3,3.9-4.3-3.1ZM169,10.4h-5.4l-1.6-5-1.6,5h-5.4l4.3,3.1-1.6,5,4.3-3.1,2.7-1.9,4.3-3.1Z"/>
      <path class="st1" d="M183.7,15.5l3-.8,1.3,3.9-4.3-3.1ZM190.7,10.4h-5.4l-1.6-5-1.6,5h-5.4l4.3,3.1-1.6,5,4.3-3.1,2.7-1.9,4.3-3.1Z"/>
    </g>
  </g>
  <path class="st1" d="M210.6,6.5h1.4v4.2c.3-.4.7-.7,1.1-.9.4-.2.9-.3,1.4-.3,1,0,1.9.4,2.5,1.1.7.7,1,1.8,1,3.2s-.3,2.4-1,3.3c-.6.9-1.5,1.3-2.7,1.3s-1.2-.2-1.6-.5c-.3-.2-.5-.5-.8-.9v1.1h-1.3V6.5ZM214.2,17c.8,0,1.3-.3,1.7-.9.4-.6.6-1.4.6-2.4s-.2-1.6-.6-2.2c-.4-.6-.9-.9-1.7-.9s-1.2.2-1.7.7c-.5.5-.7,1.3-.7,2.3s0,1.4.3,1.9c.4.9,1.1,1.4,2.1,1.4ZM220.7,15.8c0,.4.1.7.4,1,.3.2.6.4,1.1.4s1-.1,1.4-.3c.8-.4,1.2-1,1.2-1.9v-1.1c-.2.1-.4.2-.7.3-.3,0-.5.1-.8.2h-.9c-.5.2-.9.3-1.1.4-.4.2-.6.6-.6,1.2ZM224.1,12.9c.3,0,.5-.2.6-.4,0-.1,0-.3,0-.5,0-.5-.2-.8-.5-1-.3-.2-.8-.3-1.5-.3s-1.3.2-1.6.6c-.2.2-.3.5-.3,1h-1.3c0-1,.4-1.7,1-2.1.6-.4,1.4-.6,2.2-.6s1.8.2,2.4.6c.6.4.9,1,.9,1.8v4.8c0,.1,0,.3,0,.4,0,0,.2.1.4.1s.1,0,.2,0c0,0,.2,0,.2,0v1c-.2,0-.4.1-.5.1-.1,0-.3,0-.5,0-.5,0-.8-.2-1.1-.5-.1-.2-.2-.4-.2-.8-.3.4-.7.7-1.2,1-.5.3-1.1.4-1.8.4s-1.4-.2-1.9-.7c-.5-.5-.7-1.1-.7-1.8s.2-1.4.7-1.8c.5-.4,1.1-.7,1.9-.8l2.2-.3ZM229.3,15.4c0,.5.2.8.4,1.1.4.5,1,.7,1.8.7s1-.1,1.4-.3c.4-.2.6-.6.6-1.1s-.2-.6-.5-.8c-.2-.1-.6-.2-1.2-.4l-1.1-.3c-.7-.2-1.2-.4-1.6-.6-.6-.4-.9-.9-.9-1.6s.3-1.4.9-1.9c.6-.5,1.3-.7,2.3-.7s2.2.4,2.7,1.1c.3.5.5,1,.5,1.5h-1.3c0-.3-.1-.6-.3-.9-.3-.4-.9-.6-1.7-.6s-.9.1-1.2.3c-.3.2-.4.5-.4.8s.2.7.5.9c.2.1.5.2.9.3l.9.2c1,.2,1.7.5,2,.7.5.4.8.9.8,1.7s-.3,1.4-.9,1.9c-.6.5-1.4.8-2.6.8s-2.1-.3-2.6-.8c-.5-.6-.8-1.3-.8-2.1h1.4ZM240,9.4c.6,0,1.2.1,1.7.4.6.3,1,.6,1.3,1.1.3.4.5.9.6,1.5,0,.4.1,1,.1,1.8h-6.1c0,.8.2,1.5.6,2,.4.5,1,.8,1.7.8s1.3-.2,1.8-.7c.2-.3.4-.6.5-1h1.4c0,.3-.2.7-.4,1-.2.4-.4.7-.7.9-.4.4-1,.7-1.6.8-.3,0-.7.1-1.1.1-1,0-1.9-.4-2.6-1.1-.7-.8-1.1-1.8-1.1-3.2s.4-2.4,1.1-3.3c.7-.8,1.7-1.3,2.9-1.3ZM242.2,13.1c0-.6-.2-1.1-.4-1.5-.4-.7-1-1-1.9-1s-1.2.2-1.6.7c-.4.5-.7,1.1-.7,1.8h4.6ZM246.3,13.9c0,.9.2,1.6.6,2.3.4.6,1,.9,1.8.9s1.2-.3,1.6-.8c.4-.6.6-1.4.6-2.4s-.2-1.8-.6-2.3c-.4-.5-1-.8-1.6-.8s-1.3.3-1.7.8c-.4.5-.7,1.3-.7,2.4ZM248.4,9.5c.6,0,1.2.1,1.6.4.2.2.5.4.9.8v-4.2h1.4v11.5h-1.3v-1.2c-.3.5-.7.9-1.2,1.1-.4.2-1,.3-1.5.3-.9,0-1.7-.4-2.4-1.2-.7-.8-1-1.8-1-3.1s.3-2.3.9-3.2c.6-.9,1.5-1.3,2.7-1.3ZM262.1,17.1c.9,0,1.6-.4,1.9-1.1.3-.7.5-1.5.5-2.4s-.1-1.4-.4-1.9c-.4-.8-1.1-1.2-2-1.2s-1.5.3-1.9,1c-.4.7-.6,1.4-.6,2.4s.2,1.6.6,2.2c.4.6,1,.9,1.9.9ZM262.2,9.4c1.1,0,2,.4,2.7,1.1.7.7,1.1,1.8,1.1,3.2s-.3,2.5-1,3.3-1.7,1.3-3.1,1.3-2.1-.4-2.7-1.2c-.7-.8-1-1.8-1-3.1s.4-2.5,1.1-3.4c.7-.8,1.7-1.2,2.9-1.2ZM267.7,9.6h1.3v1.2c.4-.5.8-.8,1.3-1.1.4-.2.9-.3,1.5-.3,1.2,0,2,.4,2.4,1.2.2.5.3,1.1.3,1.9v5.4h-1.4v-5.3c0-.5,0-.9-.2-1.2-.2-.5-.7-.8-1.4-.8s-.6,0-.8.1c-.4.1-.7.3-1,.7-.2.3-.4.6-.5.9,0,.3-.1.7-.1,1.3v4.4h-1.4v-8.4Z"/>
  <path class="st1" d="M285.7,18h-2.3v-7.8h-2.7v-1.5c.7,0,1.2,0,1.5-.1.4,0,.8-.3,1.1-.6.2-.2.3-.5.4-.8,0-.2,0-.4,0-.5h1.9v11.3ZM293,18.3c-1.4,0-2.5-.5-3-1.5-.6-1-.9-2.5-.9-4.3s.3-3.3.9-4.3c.6-1,1.6-1.5,3-1.5s2.5.5,3,1.5c.6,1,.9,2.5.9,4.3s-.3,3.3-.9,4.3c-.6,1-1.6,1.5-3,1.5ZM294.3,15.4c.2-.7.3-1.7.3-3s-.1-2.4-.3-3c-.2-.7-.6-1-1.3-1s-1.1.3-1.3,1c-.2.7-.3,1.7-.3,3s.1,2.3.3,3c.2.7.7,1,1.3,1s1.1-.3,1.3-1ZM300.7,18.8c0,.4-.3.7-.5,1-.3.3-.6.5-1,.7-.4.2-.6.2-.8.2v-.9c.4-.1.8-.3,1-.6.2-.3.3-.7.4-1.2h-1.4v-2.3h2.4v2c0,.4,0,.7-.1,1.1ZM310.3,13.8v1.7h-1.3v2.4h-2.2v-2.4h-4.5v-1.9l4.2-6.9h2.5v7.1h1.3ZM304,13.8h2.8v-4.9l-2.8,4.9ZM312.2,17.3c-.7-.7-1-1.5-1-2.4s.1-1.2.4-1.7c.3-.5.7-.9,1.3-1.2-.5-.4-.9-.8-1.1-1.2-.2-.4-.2-.8-.2-1.2,0-.8.3-1.5.9-2.1.6-.6,1.5-.9,2.6-.9s2,.3,2.6.9c.6.6.9,1.3.9,2.1s0,.8-.2,1.2c-.2.4-.5.8-1.1,1.1.6.3,1,.7,1.3,1.2.3.5.4,1.1.4,1.7,0,1-.4,1.8-1.1,2.4-.7.7-1.7,1-3,1s-2.2-.3-2.9-1ZM313.6,14.7c0,.6.1,1,.4,1.3.3.3.7.5,1.2.5s.9-.2,1.2-.5c.3-.3.4-.7.4-1.3s-.1-1-.4-1.3c-.3-.3-.7-.5-1.2-.5s-.9.2-1.2.5c-.3.3-.4.7-.4,1.3ZM314.2,10.9c.2.3.6.4,1,.4s.8-.1,1-.4c.2-.3.4-.6.4-1s-.1-.8-.4-1c-.2-.3-.6-.4-1-.4s-.8.1-1.1.4c-.2.2-.4.6-.4,1s.1.7.4,1ZM325.8,18h-2.3v-7.8h-2.7v-1.5c.7,0,1.2,0,1.5-.1.4,0,.8-.3,1.1-.6.2-.2.3-.5.4-.8,0-.2,0-.4,0-.5h1.9v11.3Z"/>
  <path class="st1" d="M333.7,9.6h1.3v1.4c.1-.3.4-.6.8-1,.4-.4.9-.6,1.5-.6s0,0,.1,0c0,0,.2,0,.3,0v1.5c0,0-.2,0-.2,0,0,0-.1,0-.2,0-.7,0-1.3.2-1.6.7-.4.5-.6,1-.6,1.6v4.8h-1.4v-8.4ZM342.5,9.4c.6,0,1.2.1,1.7.4.6.3,1,.6,1.3,1.1.3.4.5.9.6,1.5,0,.4.1,1,.1,1.8h-6.1c0,.8.2,1.5.6,2,.4.5,1,.8,1.7.8s1.3-.2,1.8-.7c.2-.3.4-.6.5-1h1.4c0,.3-.2.7-.4,1-.2.4-.4.7-.7.9-.4.4-1,.7-1.6.8-.3,0-.7.1-1.1.1-1,0-1.9-.4-2.6-1.1-.7-.8-1.1-1.8-1.1-3.2s.4-2.4,1.1-3.3c.7-.8,1.7-1.3,2.9-1.3ZM344.8,13.1c0-.6-.2-1.1-.4-1.5-.4-.7-1-1-1.9-1s-1.2.2-1.6.7c-.4.5-.7,1.1-.7,1.8h4.6ZM348.6,9.6l2.2,6.8,2.3-6.8h1.5l-3.2,8.4h-1.5l-3.1-8.4h1.6ZM355.9,9.7h1.4v8.3h-1.4v-8.3ZM355.9,6.5h1.4v1.6h-1.4v-1.6ZM363,9.4c.6,0,1.2.1,1.7.4.6.3,1,.6,1.3,1.1.3.4.5.9.6,1.5,0,.4.1,1,.1,1.8h-6.1c0,.8.2,1.5.6,2,.4.5,1,.8,1.7.8s1.3-.2,1.8-.7c.2-.3.4-.6.5-1h1.4c0,.3-.2.7-.4,1-.2.4-.4.7-.7.9-.4.4-1,.7-1.6.8-.3,0-.7.1-1.1.1-1,0-1.9-.4-2.6-1.1-.7-.8-1.1-1.8-1.1-3.2s.4-2.4,1.1-3.3c.7-.8,1.7-1.3,2.9-1.3ZM365.2,13.1c0-.6-.2-1.1-.4-1.5-.4-.7-1-1-1.9-1s-1.2.2-1.6.7c-.4.5-.7,1.1-.7,1.8h4.6ZM369,9.6l1.6,6.6,1.6-6.6h1.6l1.6,6.6,1.7-6.6h1.4l-2.4,8.4h-1.5l-1.7-6.5-1.6,6.5h-1.5l-2.4-8.4h1.5ZM380.8,15.4c0,.5.2.8.4,1.1.4.5,1,.7,1.8.7s1-.1,1.4-.3c.4-.2.6-.6.6-1.1s-.2-.6-.5-.8c-.2-.1-.6-.2-1.2-.4l-1.1-.3c-.7-.2-1.2-.4-1.6-.6-.6-.4-.9-.9-.9-1.6s.3-1.4.9-1.9c.6-.5,1.3-.7,2.3-.7s2.2.4,2.7,1.1c.3.5.5,1,.5,1.5h-1.3c0-.3-.1-.6-.3-.9-.3-.4-.9-.6-1.7-.6s-.9.1-1.2.3c-.3.2-.4.5-.4.8s.2.7.5.9c.2.1.5.2.9.3l.9.2c1,.2,1.7.5,2,.7.5.4.8.9.8,1.7s-.3,1.4-.9,1.9c-.6.5-1.4.8-2.6.8s-2.1-.3-2.6-.8c-.5-.6-.8-1.3-.8-2.1h1.4Z"/>
  <path class="st1" d="M426.9,8.9h8.9v1.7h-3.5v9.3h-1.9v-9.3h-3.5v-1.7h0ZM435.4,11.9h1.7v1.5h0c0-.2.2-.4.3-.6.1-.2.3-.4.5-.6.2-.2.4-.3.7-.4.3-.1.5-.2.8-.2s.4,0,.4,0c0,0,.2,0,.2,0v1.7c-.1,0-.2,0-.4,0-.1,0-.3,0-.4,0-.3,0-.6,0-.8.2-.3.1-.5.3-.7.5-.2.2-.4.5-.5.9-.1.3-.2.7-.2,1.2v3.8h-1.8v-7.9h0ZM448.2,19.9h-1.7v-1.1h0c-.2.4-.5.7-1,1-.4.2-.9.4-1.3.4-1.1,0-1.8-.3-2.3-.8-.5-.5-.7-1.3-.7-2.3v-5h1.8v4.9c0,.7.1,1.2.4,1.5.3.3.6.4,1.1.4s.7,0,.9-.2c.2-.1.5-.3.6-.5.2-.2.3-.4.3-.7,0-.3.1-.5.1-.9v-4.6h1.8v7.9ZM451.2,17.3c0,.5.2.9.6,1.1.3.2.7.3,1.2.3s.4,0,.6,0c.2,0,.4,0,.6-.1.2,0,.3-.2.5-.3.1-.1.2-.3.2-.5,0-.2,0-.4-.2-.5-.2-.1-.3-.3-.6-.3-.2,0-.5-.2-.8-.2-.3,0-.6-.1-.9-.2-.3,0-.6-.2-1-.3-.3-.1-.6-.2-.8-.4-.2-.2-.4-.4-.6-.7-.1-.3-.2-.6-.2-1s.1-.8.3-1.1c.2-.3.5-.5.8-.7.3-.2.7-.3,1.1-.4.4,0,.8-.1,1.1-.1s.8,0,1.2.1c.4,0,.7.2,1,.4.3.2.6.4.8.8.2.3.3.7.4,1.1h-1.8c0-.4-.3-.7-.6-.8-.3-.1-.7-.2-1-.2s-.3,0-.4,0c-.2,0-.3,0-.5.1-.1,0-.3.1-.4.2-.1.1-.2.2-.2.4s0,.4.2.5c.1.1.3.2.6.3.2,0,.5.2.8.2.3,0,.6.1,1,.2.3,0,.6.2.9.3.3.1.6.2.8.4.2.2.4.4.6.7.1.3.2.6.2,1s-.1.9-.3,1.2c-.2.3-.5.6-.8.8-.3.2-.7.4-1.2.4-.4,0-.8.1-1.3.1s-1,0-1.4-.2c-.4-.1-.8-.3-1.1-.5-.3-.2-.6-.5-.7-.9-.2-.3-.3-.8-.3-1.2h1.8ZM457,11.9h1.3v-2.4h1.8v2.4h1.6v1.3h-1.6v4.2c0,.2,0,.3,0,.5,0,.1,0,.2.1.3,0,0,.1.2.3.2.1,0,.3,0,.5,0s.2,0,.4,0c.1,0,.2,0,.4,0v1.4c-.2,0-.4,0-.6,0-.2,0-.4,0-.6,0-.5,0-.8,0-1.1-.1-.3,0-.5-.2-.7-.4-.2-.2-.3-.4-.3-.6,0-.3,0-.5-.1-.9v-4.7h-1.3v-1.3h0ZM462.9,11.9h1.7v1.1h0c.2-.5.6-.8,1-1,.4-.2.9-.3,1.4-.3s1.2.1,1.6.3c.5.2.9.5,1.2.9.3.4.5.8.7,1.3.2.5.2,1.1.2,1.6s0,1.1-.2,1.5c-.1.5-.4.9-.6,1.3-.3.4-.6.7-1.1.9-.4.2-.9.3-1.5.3s-.5,0-.8,0c-.3,0-.5-.1-.7-.2-.2-.1-.5-.2-.7-.4-.2-.2-.4-.3-.5-.6h0v4h-1.8v-10.9ZM469.1,15.9c0-.4,0-.7-.1-1,0-.3-.2-.6-.4-.9-.2-.3-.4-.5-.7-.6-.3-.2-.6-.2-1-.2-.7,0-1.3.3-1.7.8-.4.5-.6,1.2-.6,2s0,.8.1,1.1c.1.3.2.6.4.9.2.2.4.4.7.6.3.1.6.2,1,.2s.7,0,1-.2c.3-.2.5-.4.7-.6.2-.3.3-.6.4-.9,0-.3.1-.7.1-1ZM472.2,8.9h1.8v1.7h-1.8v-1.7ZM472.2,11.9h1.8v7.9h-1.8v-7.9ZM475.5,8.9h1.8v11h-1.8v-11ZM482.7,20.1c-.6,0-1.2-.1-1.7-.3-.5-.2-.9-.5-1.3-.9-.3-.4-.6-.8-.8-1.3-.2-.5-.3-1.1-.3-1.7s0-1.2.3-1.7c.2-.5.4-1,.8-1.3.3-.4.8-.7,1.3-.9.5-.2,1.1-.3,1.7-.3s1.2.1,1.7.3c.5.2.9.5,1.3.9.3.4.6.8.8,1.3.2.5.3,1.1.3,1.7s0,1.2-.3,1.7c-.2.5-.4,1-.8,1.3s-.8.7-1.3.9c-.5.2-1.1.3-1.7.3ZM482.7,18.7c.4,0,.7,0,1-.2.3-.2.5-.4.7-.6.2-.3.3-.6.4-.9,0-.3.1-.7.1-1s0-.7-.1-1c0-.3-.2-.6-.4-.9s-.4-.5-.7-.6c-.3-.2-.6-.2-1-.2s-.7,0-1,.2c-.3.2-.5.4-.7.6-.2.3-.3.6-.4.9,0,.3-.1.7-.1,1s0,.7.1,1c0,.3.2.6.4.9.2.3.4.5.7.6.3.2.6.2,1,.2ZM487.2,11.9h1.3v-2.4h1.8v2.4h1.6v1.3h-1.6v4.2c0,.2,0,.3,0,.5,0,.1,0,.2.1.3,0,0,.1.2.3.2.1,0,.3,0,.5,0s.2,0,.4,0c.1,0,.2,0,.4,0v1.4c-.2,0-.4,0-.6,0-.2,0-.4,0-.6,0-.5,0-.8,0-1.1-.1-.3,0-.5-.2-.7-.4-.2-.2-.3-.4-.3-.6,0-.3,0-.5-.1-.9v-4.7h-1.3v-1.3h0Z"/>
  <path class="st4" d="M424.8,8.9h-8.1l-2.5-7.6-2.5,7.6h-8.1s6.5,4.7,6.5,4.7l-2.5,7.6,6.5-4.7,6.5,4.7-2.5-7.6,6.5-4.7Z"/>
  <path class="st2" d="M418.8,15.3l-.6-1.7-4,2.9,4.6-1.2Z"/>
</svg>