<svg width="492" height="24" viewBox="0 0 492 24" fill="none" xmlns="http://www.w3.org/2000/svg">
<path d="M9.23438 12.9688H3.64062V15.9297H10.0156V18H1.28906V6.48438H9.73438V8.52344H3.64062V10.9688H9.23438V12.9688ZM19.2969 18H16.5234L15.0547 15.4453L13.5781 18H10.875L13.7812 13.6875L11 9.5H13.7266L15.1484 11.9688L16.5391 9.5H19.1875L16.3906 13.6484L19.2969 18ZM27.9844 12.5391H25.7031C25.6615 12.2214 25.5547 11.9349 25.3828 11.6797C25.1328 11.3359 24.7448 11.1641 24.2188 11.1641C23.4688 11.1641 22.9557 11.5365 22.6797 12.2812C22.5339 12.6771 22.4609 13.2031 22.4609 13.8594C22.4609 14.4844 22.5339 14.987 22.6797 15.3672C22.9453 16.0755 23.4453 16.4297 24.1797 16.4297C24.7005 16.4297 25.0703 16.2891 25.2891 16.0078C25.5078 15.7266 25.6406 15.362 25.6875 14.9141H27.9609C27.9089 15.5911 27.6641 16.2318 27.2266 16.8359C26.5286 17.8099 25.4948 18.2969 24.125 18.2969C22.7552 18.2969 21.7474 17.8906 21.1016 17.0781C20.4557 16.2656 20.1328 15.2109 20.1328 13.9141C20.1328 12.4505 20.4896 11.3125 21.2031 10.5C21.9167 9.6875 22.901 9.28125 24.1562 9.28125C25.224 9.28125 26.0964 9.52083 26.7734 10C27.4557 10.4792 27.8594 11.3255 27.9844 12.5391ZM36.8125 15.5C36.7552 16.0052 36.4922 16.5182 36.0234 17.0391C35.2943 17.8672 34.2734 18.2812 32.9609 18.2812C31.8776 18.2812 30.9219 17.9323 30.0938 17.2344C29.2656 16.5365 28.8516 15.401 28.8516 13.8281C28.8516 12.3542 29.224 11.224 29.9688 10.4375C30.7188 9.65104 31.6901 9.25781 32.8828 9.25781C33.5911 9.25781 34.2292 9.39062 34.7969 9.65625C35.3646 9.92188 35.8333 10.3411 36.2031 10.9141C36.5365 11.4193 36.7526 12.0052 36.8516 12.6719C36.9089 13.0625 36.9323 13.625 36.9219 14.3594H31.0938C31.125 15.2135 31.3932 15.8125 31.8984 16.1562C32.2057 16.3698 32.5755 16.4766 33.0078 16.4766C33.4661 16.4766 33.8385 16.3464 34.125 16.0859C34.2812 15.9453 34.4193 15.75 34.5391 15.5H36.8125ZM34.6094 12.8906C34.5729 12.3021 34.3932 11.8568 34.0703 11.5547C33.7526 11.2474 33.3568 11.0938 32.8828 11.0938C32.3672 11.0938 31.9661 11.2552 31.6797 11.5781C31.3984 11.901 31.2214 12.3385 31.1484 12.8906H34.6094ZM38.4766 6.48438H40.7031V18H38.4766V6.48438ZM42.9297 6.48438H45.1562V18H42.9297V6.48438ZM54.625 15.5C54.5677 16.0052 54.3047 16.5182 53.8359 17.0391C53.1068 17.8672 52.0859 18.2812 50.7734 18.2812C49.6901 18.2812 48.7344 17.9323 47.9062 17.2344C47.0781 16.5365 46.6641 15.401 46.6641 13.8281C46.6641 12.3542 47.0365 11.224 47.7812 10.4375C48.5312 9.65104 49.5026 9.25781 50.6953 9.25781C51.4036 9.25781 52.0417 9.39062 52.6094 9.65625C53.1771 9.92188 53.6458 10.3411 54.0156 10.9141C54.349 11.4193 54.5651 12.0052 54.6641 12.6719C54.7214 13.0625 54.7448 13.625 54.7344 14.3594H48.9062C48.9375 15.2135 49.2057 15.8125 49.7109 16.1562C50.0182 16.3698 50.388 16.4766 50.8203 16.4766C51.2786 16.4766 51.651 16.3464 51.9375 16.0859C52.0938 15.9453 52.2318 15.75 52.3516 15.5H54.625ZM52.4219 12.8906C52.3854 12.3021 52.2057 11.8568 51.8828 11.5547C51.5651 11.2474 51.1693 11.0938 50.6953 11.0938C50.1797 11.0938 49.7786 11.2552 49.4922 11.5781C49.2109 11.901 49.0339 12.3385 48.9609 12.8906H52.4219ZM60.25 11.1328C59.4948 11.1328 58.9766 11.4531 58.6953 12.0938C58.5495 12.4323 58.4766 12.8646 58.4766 13.3906V18H56.2578V9.5H58.4062V10.7422C58.6927 10.3047 58.9635 9.98958 59.2188 9.79688C59.6771 9.45312 60.2578 9.28125 60.9609 9.28125C61.8411 9.28125 62.5599 9.51302 63.1172 9.97656C63.6797 10.4349 63.9609 11.1979 63.9609 12.2656V18H61.6797V12.8203C61.6797 12.3724 61.6198 12.0286 61.5 11.7891C61.2812 11.3516 60.8646 11.1328 60.25 11.1328ZM69.9219 16.4141V18.0781L68.8672 18.1172C67.8151 18.1536 67.0964 17.9714 66.7109 17.5703C66.4609 17.3151 66.3359 16.9219 66.3359 16.3906V11.1484H65.1484V9.5625H66.3359V7.1875H68.5391V9.5625H69.9219V11.1484H68.5391V15.6484C68.5391 15.9974 68.5833 16.2161 68.6719 16.3047C68.7604 16.388 69.0312 16.4297 69.4844 16.4297C69.5521 16.4297 69.6224 16.4297 69.6953 16.4297C69.7734 16.4245 69.849 16.4193 69.9219 16.4141Z" fill="black"/>
<g clip-path="url(#clip0_24741_243)">
<path d="M107 2H87V22H107V2Z" fill="#00B67A"/>
<path d="M128.667 2H108.667V22H128.667V2Z" fill="#00B67A"/>
<path d="M150.333 2H130.333V22H150.333V2Z" fill="#00B67A"/>
<path d="M172 2H152V22H172V2Z" fill="#00B67A"/>
<path d="M193.667 2H173.667V22H193.667V2Z" fill="#00B67A"/>
<path d="M97 15.4792L100.042 14.7083L101.312 18.625L97 15.4792ZM104 10.4167H98.6458L97 5.375L95.3542 10.4167H90L94.3333 13.5417L92.6875 18.5833L97.0208 15.4583L99.6875 13.5417L104 10.4167Z" fill="white"/>
<path d="M118.667 15.4792L121.708 14.7083L122.979 18.625L118.667 15.4792ZM125.667 10.4167H120.312L118.667 5.375L117.021 10.4167H111.667L116 13.5417L114.354 18.5833L118.687 15.4583L121.354 13.5417L125.667 10.4167Z" fill="white"/>
<path d="M140.333 15.4792L143.375 14.7083L144.646 18.625L140.333 15.4792ZM147.333 10.4167H141.979L140.333 5.375L138.687 10.4167H133.333L137.667 13.5417L136.021 18.5833L140.354 15.4583L143.021 13.5417L147.333 10.4167Z" fill="white"/>
<path d="M162 15.4792L165.042 14.7083L166.313 18.625L162 15.4792ZM169 10.4167H163.646L162 5.375L160.354 10.4167H155L159.333 13.5417L157.687 18.5833L162.021 15.4583L164.688 13.5417L169 10.4167Z" fill="white"/>
<path d="M183.667 15.4792L186.708 14.7083L187.979 18.625L183.667 15.4792ZM190.667 10.4167H185.312L183.667 5.375L182.021 10.4167H176.667L181 13.5417L179.354 18.5833L183.687 15.4583L186.354 13.5417L190.667 10.4167Z" fill="white"/>
</g>
<path d="M210.589 6.48438H211.956V10.6484C212.263 10.2474 212.63 9.94271 213.057 9.73438C213.484 9.52083 213.948 9.41406 214.448 9.41406C215.49 9.41406 216.333 9.77344 216.979 10.4922C217.63 11.2057 217.956 12.2604 217.956 13.6562C217.956 14.9792 217.635 16.0781 216.995 16.9531C216.354 17.8281 215.466 18.2656 214.331 18.2656C213.695 18.2656 213.159 18.112 212.721 17.8047C212.461 17.6224 212.182 17.3307 211.885 16.9297V18H210.589V6.48438ZM214.245 17.0234C215.005 17.0234 215.573 16.7214 215.948 16.1172C216.328 15.513 216.518 14.7161 216.518 13.7266C216.518 12.8464 216.328 12.1172 215.948 11.5391C215.573 10.9609 215.018 10.6719 214.284 10.6719C213.643 10.6719 213.081 10.9089 212.596 11.3828C212.117 11.8568 211.878 12.638 211.878 13.7266C211.878 14.513 211.977 15.151 212.174 15.6406C212.544 16.5625 213.234 17.0234 214.245 17.0234ZM220.682 15.7734C220.682 16.1797 220.831 16.5 221.128 16.7344C221.424 16.9688 221.776 17.0859 222.182 17.0859C222.677 17.0859 223.156 16.9714 223.62 16.7422C224.401 16.362 224.792 15.7396 224.792 14.875V13.7422C224.62 13.8516 224.398 13.9427 224.128 14.0156C223.857 14.0885 223.591 14.1406 223.331 14.1719L222.479 14.2812C221.969 14.349 221.586 14.4557 221.331 14.6016C220.898 14.8464 220.682 15.237 220.682 15.7734ZM224.089 12.9297C224.411 12.888 224.628 12.7526 224.737 12.5234C224.799 12.3984 224.831 12.2188 224.831 11.9844C224.831 11.5052 224.659 11.1589 224.315 10.9453C223.977 10.7266 223.49 10.6172 222.854 10.6172C222.12 10.6172 221.599 10.8151 221.292 11.2109C221.12 11.4297 221.008 11.7552 220.956 12.1875H219.643C219.669 11.1562 220.003 10.4401 220.643 10.0391C221.289 9.63281 222.036 9.42969 222.885 9.42969C223.87 9.42969 224.669 9.61719 225.284 9.99219C225.893 10.3672 226.198 10.9505 226.198 11.7422V16.5625C226.198 16.7083 226.227 16.8255 226.284 16.9141C226.346 17.0026 226.474 17.0469 226.667 17.0469C226.729 17.0469 226.799 17.0443 226.878 17.0391C226.956 17.0286 227.039 17.0156 227.128 17V18.0391C226.909 18.1016 226.742 18.1406 226.628 18.1562C226.513 18.1719 226.357 18.1797 226.159 18.1797C225.674 18.1797 225.323 18.0078 225.104 17.6641C224.99 17.4818 224.909 17.224 224.862 16.8906C224.575 17.2656 224.164 17.5911 223.628 17.8672C223.091 18.1432 222.5 18.2812 221.854 18.2812C221.078 18.2812 220.443 18.0469 219.948 17.5781C219.458 17.1042 219.214 16.513 219.214 15.8047C219.214 15.0286 219.456 14.4271 219.94 14C220.424 13.5729 221.06 13.3099 221.846 13.2109L224.089 12.9297ZM229.346 15.375C229.388 15.8438 229.505 16.2031 229.698 16.4531C230.052 16.9062 230.667 17.1328 231.542 17.1328C232.062 17.1328 232.521 17.0208 232.917 16.7969C233.312 16.5677 233.51 16.2161 233.51 15.7422C233.51 15.3828 233.352 15.1094 233.034 14.9219C232.831 14.8073 232.43 14.6745 231.831 14.5234L230.714 14.2422C230 14.0651 229.474 13.8672 229.135 13.6484C228.531 13.2682 228.229 12.7422 228.229 12.0703C228.229 11.2786 228.513 10.638 229.081 10.1484C229.654 9.65885 230.422 9.41406 231.385 9.41406C232.646 9.41406 233.555 9.78385 234.112 10.5234C234.461 10.9922 234.63 11.4974 234.62 12.0391H233.292C233.266 11.7214 233.154 11.4323 232.956 11.1719C232.633 10.8021 232.073 10.6172 231.276 10.6172C230.745 10.6172 230.341 10.7188 230.065 10.9219C229.794 11.125 229.659 11.3932 229.659 11.7266C229.659 12.0911 229.839 12.3828 230.198 12.6016C230.406 12.7318 230.714 12.8464 231.12 12.9453L232.049 13.1719C233.06 13.4167 233.737 13.6536 234.081 13.8828C234.628 14.2422 234.901 14.8073 234.901 15.5781C234.901 16.3229 234.617 16.9661 234.049 17.5078C233.487 18.0495 232.628 18.3203 231.471 18.3203C230.227 18.3203 229.344 18.0391 228.823 17.4766C228.307 16.9089 228.031 16.2083 227.995 15.375H229.346ZM239.995 9.44531C240.589 9.44531 241.164 9.58594 241.721 9.86719C242.279 10.1432 242.703 10.5026 242.995 10.9453C243.276 11.3672 243.464 11.8594 243.557 12.4219C243.641 12.8073 243.682 13.4219 243.682 14.2656H237.549C237.575 15.1146 237.776 15.7969 238.151 16.3125C238.526 16.8229 239.107 17.0781 239.893 17.0781C240.628 17.0781 241.214 16.8359 241.651 16.3516C241.901 16.0703 242.078 15.7448 242.182 15.375H243.565C243.529 15.6823 243.406 16.026 243.198 16.4062C242.995 16.7812 242.766 17.0885 242.51 17.3281C242.083 17.7448 241.555 18.026 240.924 18.1719C240.586 18.2552 240.203 18.2969 239.776 18.2969C238.734 18.2969 237.852 17.9193 237.128 17.1641C236.404 16.4036 236.042 15.3411 236.042 13.9766C236.042 12.6328 236.406 11.5417 237.135 10.7031C237.865 9.86458 238.818 9.44531 239.995 9.44531ZM242.237 13.1484C242.18 12.5391 242.047 12.0521 241.839 11.6875C241.453 11.0104 240.81 10.6719 239.909 10.6719C239.263 10.6719 238.721 10.9062 238.284 11.375C237.846 11.8385 237.615 12.4297 237.589 13.1484H242.237ZM246.307 13.9141C246.307 14.8099 246.497 15.5599 246.878 16.1641C247.258 16.7682 247.867 17.0703 248.706 17.0703C249.357 17.0703 249.891 16.7917 250.307 16.2344C250.729 15.6719 250.94 14.8672 250.94 13.8203C250.94 12.763 250.724 11.9818 250.292 11.4766C249.859 10.9661 249.325 10.7109 248.69 10.7109C247.982 10.7109 247.406 10.9818 246.964 11.5234C246.526 12.0651 246.307 12.862 246.307 13.9141ZM248.424 9.48438C249.065 9.48438 249.602 9.61979 250.034 9.89062C250.284 10.0469 250.568 10.3203 250.885 10.7109V6.48438H252.237V18H250.971V16.8359C250.643 17.3516 250.255 17.724 249.807 17.9531C249.359 18.1823 248.846 18.2969 248.268 18.2969C247.336 18.2969 246.529 17.9062 245.846 17.125C245.164 16.3385 244.823 15.2943 244.823 13.9922C244.823 12.7734 245.133 11.7188 245.753 10.8281C246.378 9.93229 247.268 9.48438 248.424 9.48438ZM262.096 17.0938C263.029 17.0938 263.667 16.7422 264.01 16.0391C264.359 15.3307 264.534 14.5443 264.534 13.6797C264.534 12.8984 264.409 12.263 264.159 11.7734C263.763 11.0026 263.081 10.6172 262.112 10.6172C261.253 10.6172 260.628 10.9453 260.237 11.6016C259.846 12.2578 259.651 13.0495 259.651 13.9766C259.651 14.8672 259.846 15.6094 260.237 16.2031C260.628 16.7969 261.247 17.0938 262.096 17.0938ZM262.151 9.39062C263.229 9.39062 264.141 9.75 264.885 10.4688C265.63 11.1875 266.003 12.2448 266.003 13.6406C266.003 14.9896 265.674 16.1042 265.018 16.9844C264.362 17.8646 263.344 18.3047 261.964 18.3047C260.812 18.3047 259.898 17.9167 259.221 17.1406C258.544 16.3594 258.206 15.3125 258.206 14C258.206 12.5938 258.562 11.474 259.276 10.6406C259.99 9.80729 260.948 9.39062 262.151 9.39062ZM267.682 9.63281H269.018V10.8203C269.414 10.3307 269.833 9.97917 270.276 9.76562C270.719 9.55208 271.211 9.44531 271.753 9.44531C272.94 9.44531 273.742 9.85938 274.159 10.6875C274.388 11.1406 274.503 11.7891 274.503 12.6328V18H273.073V12.7266C273.073 12.2161 272.997 11.8047 272.846 11.4922C272.596 10.9714 272.143 10.7109 271.487 10.7109C271.154 10.7109 270.88 10.7448 270.667 10.8125C270.281 10.9271 269.943 11.1562 269.651 11.5C269.417 11.776 269.263 12.0625 269.19 12.3594C269.122 12.651 269.089 13.0703 269.089 13.6172V18H267.682V9.63281Z" fill="black"/>
<path d="M285.721 18H283.44V10.1875H280.776V8.67188C281.479 8.64062 281.971 8.59375 282.253 8.53125C282.7 8.43229 283.065 8.23438 283.346 7.9375C283.539 7.73438 283.685 7.46354 283.784 7.125C283.841 6.92188 283.87 6.77083 283.87 6.67188H285.721V18ZM292.979 18.2812C291.536 18.2812 290.523 17.776 289.94 16.7656C289.362 15.7552 289.073 14.3151 289.073 12.4453C289.073 10.5755 289.362 9.13281 289.94 8.11719C290.523 7.10156 291.536 6.59375 292.979 6.59375C294.422 6.59375 295.435 7.10156 296.018 8.11719C296.596 9.13281 296.885 10.5755 296.885 12.4453C296.885 14.3151 296.594 15.7552 296.01 16.7656C295.432 17.776 294.422 18.2812 292.979 18.2812ZM294.284 15.4297C294.487 14.7422 294.589 13.7474 294.589 12.4453C294.589 11.0807 294.484 10.0703 294.276 9.41406C294.073 8.75781 293.641 8.42969 292.979 8.42969C292.318 8.42969 291.88 8.75781 291.667 9.41406C291.453 10.0703 291.346 11.0807 291.346 12.4453C291.346 13.7474 291.453 14.7448 291.667 15.4375C291.88 16.125 292.318 16.4688 292.979 16.4688C293.641 16.4688 294.075 16.1224 294.284 15.4297ZM300.667 18.7969C300.573 19.1823 300.398 19.5156 300.143 19.7969C299.867 20.099 299.542 20.3255 299.167 20.4766C298.797 20.6328 298.542 20.7109 298.401 20.7109V19.8516C298.849 19.7266 299.177 19.5182 299.385 19.2266C299.599 18.9349 299.721 18.526 299.753 18H298.401V15.6719H300.807V17.6875C300.807 18.0417 300.76 18.4115 300.667 18.7969ZM310.299 13.8203V15.5625H309.018V18H306.839V15.5625H302.354V13.6172L306.518 6.74219H309.018V13.8203H310.299ZM304.003 13.8203H306.839V8.92969L304.003 13.8203ZM312.237 17.2891C311.586 16.6224 311.26 15.8125 311.26 14.8594C311.26 14.224 311.404 13.6484 311.69 13.1328C311.982 12.6172 312.406 12.2292 312.964 11.9688C312.417 11.6042 312.06 11.2109 311.893 10.7891C311.732 10.362 311.651 9.96354 311.651 9.59375C311.651 8.77083 311.961 8.07031 312.581 7.49219C313.2 6.90885 314.075 6.61719 315.206 6.61719C316.336 6.61719 317.211 6.90885 317.831 7.49219C318.45 8.07031 318.76 8.77083 318.76 9.59375C318.76 9.96354 318.677 10.362 318.51 10.7891C318.349 11.2109 317.995 11.5781 317.448 11.8906C318.005 12.2031 318.424 12.6172 318.706 13.1328C318.987 13.6484 319.128 14.224 319.128 14.8594C319.128 15.8125 318.773 16.625 318.065 17.2969C317.362 17.9635 316.378 18.2969 315.112 18.2969C313.846 18.2969 312.888 17.9609 312.237 17.2891ZM313.573 14.7109C313.573 15.2682 313.716 15.7005 314.003 16.0078C314.294 16.3151 314.695 16.4688 315.206 16.4688C315.716 16.4688 316.115 16.3151 316.401 16.0078C316.693 15.7005 316.839 15.2682 316.839 14.7109C316.839 14.1328 316.69 13.6953 316.393 13.3984C316.102 13.0964 315.706 12.9453 315.206 12.9453C314.706 12.9453 314.307 13.0964 314.01 13.3984C313.719 13.6953 313.573 14.1328 313.573 14.7109ZM314.159 10.8516C314.409 11.112 314.758 11.2422 315.206 11.2422C315.659 11.2422 316.008 11.112 316.253 10.8516C316.503 10.5911 316.628 10.2552 316.628 9.84375C316.628 9.39583 316.503 9.04688 316.253 8.79688C316.008 8.54167 315.659 8.41406 315.206 8.41406C314.758 8.41406 314.406 8.54167 314.151 8.79688C313.901 9.04688 313.776 9.39583 313.776 9.84375C313.776 10.2552 313.904 10.5911 314.159 10.8516ZM325.799 18H323.518V10.1875H320.854V8.67188C321.557 8.64062 322.049 8.59375 322.331 8.53125C322.779 8.43229 323.143 8.23438 323.424 7.9375C323.617 7.73438 323.763 7.46354 323.862 7.125C323.919 6.92188 323.948 6.77083 323.948 6.67188H325.799V18Z" fill="black"/>
<path d="M333.737 9.63281H335.073V11.0781C335.182 10.7969 335.45 10.4557 335.878 10.0547C336.305 9.64844 336.797 9.44531 337.354 9.44531C337.38 9.44531 337.424 9.44792 337.487 9.45312C337.549 9.45833 337.656 9.46875 337.807 9.48438V10.9688C337.724 10.9531 337.646 10.9427 337.573 10.9375C337.505 10.9323 337.43 10.9297 337.346 10.9297C336.638 10.9297 336.094 11.1589 335.714 11.6172C335.333 12.0703 335.143 12.5938 335.143 13.1875V18H333.737V9.63281ZM342.51 9.44531C343.104 9.44531 343.68 9.58594 344.237 9.86719C344.794 10.1432 345.219 10.5026 345.51 10.9453C345.792 11.3672 345.979 11.8594 346.073 12.4219C346.156 12.8073 346.198 13.4219 346.198 14.2656H340.065C340.091 15.1146 340.292 15.7969 340.667 16.3125C341.042 16.8229 341.622 17.0781 342.409 17.0781C343.143 17.0781 343.729 16.8359 344.167 16.3516C344.417 16.0703 344.594 15.7448 344.698 15.375H346.081C346.044 15.6823 345.922 16.026 345.714 16.4062C345.51 16.7812 345.281 17.0885 345.026 17.3281C344.599 17.7448 344.07 18.026 343.44 18.1719C343.102 18.2552 342.719 18.2969 342.292 18.2969C341.25 18.2969 340.367 17.9193 339.643 17.1641C338.919 16.4036 338.557 15.3411 338.557 13.9766C338.557 12.6328 338.922 11.5417 339.651 10.7031C340.38 9.86458 341.333 9.44531 342.51 9.44531ZM344.753 13.1484C344.695 12.5391 344.562 12.0521 344.354 11.6875C343.969 11.0104 343.325 10.6719 342.424 10.6719C341.779 10.6719 341.237 10.9062 340.799 11.375C340.362 11.8385 340.13 12.4297 340.104 13.1484H344.753ZM348.62 9.63281L350.854 16.4453L353.19 9.63281H354.729L351.573 18H350.073L346.987 9.63281H348.62ZM355.932 9.67188H357.362V18H355.932V9.67188ZM355.932 6.52344H357.362V8.11719H355.932V6.52344ZM362.979 9.44531C363.573 9.44531 364.148 9.58594 364.706 9.86719C365.263 10.1432 365.687 10.5026 365.979 10.9453C366.26 11.3672 366.448 11.8594 366.542 12.4219C366.625 12.8073 366.667 13.4219 366.667 14.2656H360.534C360.56 15.1146 360.76 15.7969 361.135 16.3125C361.51 16.8229 362.091 17.0781 362.878 17.0781C363.612 17.0781 364.198 16.8359 364.635 16.3516C364.885 16.0703 365.062 15.7448 365.167 15.375H366.549C366.513 15.6823 366.391 16.026 366.182 16.4062C365.979 16.7812 365.75 17.0885 365.495 17.3281C365.068 17.7448 364.539 18.026 363.909 18.1719C363.57 18.2552 363.187 18.2969 362.76 18.2969C361.719 18.2969 360.836 17.9193 360.112 17.1641C359.388 16.4036 359.026 15.3411 359.026 13.9766C359.026 12.6328 359.391 11.5417 360.12 10.7031C360.849 9.86458 361.802 9.44531 362.979 9.44531ZM365.221 13.1484C365.164 12.5391 365.031 12.0521 364.823 11.6875C364.437 11.0104 363.794 10.6719 362.893 10.6719C362.247 10.6719 361.706 10.9062 361.268 11.375C360.831 11.8385 360.599 12.4297 360.573 13.1484H365.221ZM369.049 9.63281L370.659 16.2266L372.292 9.63281H373.87L375.51 16.1875L377.221 9.63281H378.628L376.198 18H374.737L373.034 11.5234L371.385 18H369.924L367.51 9.63281H369.049ZM380.799 15.375C380.841 15.8438 380.958 16.2031 381.151 16.4531C381.505 16.9062 382.12 17.1328 382.995 17.1328C383.516 17.1328 383.974 17.0208 384.37 16.7969C384.766 16.5677 384.964 16.2161 384.964 15.7422C384.964 15.3828 384.805 15.1094 384.487 14.9219C384.284 14.8073 383.883 14.6745 383.284 14.5234L382.167 14.2422C381.453 14.0651 380.927 13.8672 380.589 13.6484C379.984 13.2682 379.682 12.7422 379.682 12.0703C379.682 11.2786 379.966 10.638 380.534 10.1484C381.107 9.65885 381.875 9.41406 382.839 9.41406C384.099 9.41406 385.008 9.78385 385.565 10.5234C385.914 10.9922 386.083 11.4974 386.073 12.0391H384.745C384.719 11.7214 384.607 11.4323 384.409 11.1719C384.086 10.8021 383.526 10.6172 382.729 10.6172C382.198 10.6172 381.794 10.7188 381.518 10.9219C381.247 11.125 381.112 11.3932 381.112 11.7266C381.112 12.0911 381.292 12.3828 381.651 12.6016C381.859 12.7318 382.167 12.8464 382.573 12.9453L383.503 13.1719C384.513 13.4167 385.19 13.6536 385.534 13.8828C386.081 14.2422 386.354 14.8073 386.354 15.5781C386.354 16.3229 386.07 16.9661 385.503 17.5078C384.94 18.0495 384.081 18.3203 382.924 18.3203C381.68 18.3203 380.797 18.0391 380.276 17.4766C379.76 16.9089 379.484 16.2083 379.448 15.375H380.799Z" fill="black"/>
<path d="M426.857 8.89484H435.79V10.552H432.278V19.8678H430.346V10.552H426.85V8.89484H426.857ZM435.408 11.9227H437.059V13.4559H437.09C437.145 13.2391 437.246 13.03 437.394 12.8287C437.542 12.6273 437.721 12.4338 437.931 12.2711C438.142 12.1008 438.375 11.9691 438.632 11.8607C438.889 11.76 439.154 11.7058 439.419 11.7058C439.621 11.7058 439.769 11.7136 439.847 11.7213C439.925 11.7291 440.003 11.7446 440.088 11.7523V13.4404C439.964 13.4172 439.839 13.4017 439.707 13.3862C439.574 13.3708 439.45 13.363 439.325 13.363C439.029 13.363 438.749 13.425 438.484 13.5411C438.219 13.6573 437.994 13.8354 437.799 14.06C437.604 14.2923 437.448 14.571 437.332 14.9118C437.215 15.2525 437.16 15.6397 437.16 16.0811V19.8601H435.4V11.9227L435.408 11.9227ZM448.18 19.8678H446.451V18.7604H446.42C446.202 19.1631 445.882 19.4806 445.454 19.7207C445.026 19.9607 444.59 20.0846 444.146 20.0846C443.094 20.0846 442.331 19.8291 441.864 19.3102C441.397 18.7914 441.163 18.0093 441.163 16.9639V11.9227H442.923V16.7935C442.923 17.4905 443.056 17.9861 443.328 18.2726C443.593 18.5591 443.974 18.7062 444.457 18.7062C444.831 18.7062 445.135 18.652 445.384 18.5359C445.633 18.4197 445.836 18.2726 445.984 18.079C446.139 17.8931 446.248 17.6608 446.319 17.3975C446.389 17.1342 446.42 16.8477 446.42 16.538V11.9304H448.18V19.8678ZM451.178 17.3201C451.232 17.8312 451.427 18.1874 451.762 18.3965C452.105 18.5978 452.51 18.7062 452.985 18.7062C453.148 18.7062 453.335 18.6907 453.545 18.6675C453.756 18.6443 453.958 18.5901 454.137 18.5204C454.324 18.4507 454.472 18.3423 454.597 18.2029C454.714 18.0635 454.768 17.8854 454.76 17.6608C454.752 17.4362 454.667 17.2504 454.511 17.111C454.355 16.9639 454.161 16.8555 453.919 16.7625C453.678 16.6774 453.405 16.5999 453.094 16.538C452.782 16.476 452.471 16.4063 452.151 16.3366C451.824 16.2669 451.505 16.174 451.201 16.0733C450.898 15.9727 450.625 15.8333 450.384 15.6552C450.142 15.4848 449.948 15.2602 449.807 14.9892C449.659 14.7182 449.589 14.3852 449.589 13.9825C449.589 13.5489 449.698 13.1926 449.909 12.8984C450.119 12.6041 450.391 12.3718 450.711 12.1937C451.038 12.0156 451.396 11.8917 451.793 11.8142C452.19 11.7446 452.572 11.7058 452.93 11.7058C453.343 11.7058 453.74 11.7523 454.114 11.8375C454.488 11.9227 454.83 12.0621 455.134 12.2634C455.438 12.457 455.687 12.7125 455.889 13.0223C456.092 13.332 456.217 13.7115 456.271 14.1529H454.433C454.348 13.7347 454.161 13.4482 453.857 13.3088C453.553 13.1617 453.203 13.092 452.813 13.092C452.689 13.092 452.541 13.0997 452.369 13.123C452.198 13.1462 452.042 13.1849 451.887 13.2391C451.739 13.2933 451.614 13.3785 451.505 13.4869C451.404 13.5953 451.349 13.7347 451.349 13.9128C451.349 14.1296 451.427 14.3 451.575 14.4317C451.723 14.5633 451.918 14.6717 452.159 14.7646C452.401 14.8498 452.673 14.9273 452.985 14.9892C453.296 15.0512 453.615 15.1209 453.943 15.1905C454.262 15.2602 454.573 15.3532 454.885 15.4538C455.196 15.5545 455.469 15.6939 455.71 15.872C455.952 16.0501 456.146 16.2669 456.294 16.5302C456.442 16.7935 456.52 17.1265 456.52 17.5137C456.52 17.9861 456.411 18.381 456.193 18.714C455.975 19.0392 455.695 19.3102 455.352 19.5116C455.009 19.7129 454.62 19.8678 454.2 19.9607C453.779 20.0537 453.358 20.1001 452.946 20.1001C452.44 20.1001 451.972 20.0459 451.544 19.9298C451.116 19.8136 450.742 19.6432 450.43 19.4187C450.119 19.1863 449.87 18.8998 449.691 18.5591C449.511 18.2184 449.418 17.808 449.402 17.3356H451.178V17.3201ZM456.988 11.9227H458.319V9.53757H460.079V11.9227H461.668V13.2314H460.079V17.475C460.079 17.6608 460.087 17.8157 460.103 17.9551C460.118 18.0867 460.157 18.2029 460.212 18.2958C460.266 18.3887 460.352 18.4584 460.469 18.5049C460.585 18.5514 460.733 18.5746 460.936 18.5746C461.06 18.5746 461.185 18.5746 461.31 18.5668C461.434 18.5591 461.559 18.5436 461.683 18.5126V19.8678C461.489 19.891 461.294 19.9065 461.115 19.9298C460.928 19.953 460.741 19.9607 460.546 19.9607C460.079 19.9607 459.705 19.9143 459.425 19.8291C459.145 19.7439 458.919 19.6123 458.763 19.4419C458.6 19.2715 458.498 19.0624 458.436 18.8069C458.381 18.5514 458.343 18.2571 458.335 17.9319V13.2469H457.003V11.9227H456.988ZM462.914 11.9227H464.58V12.999H464.612C464.861 12.5344 465.203 12.2092 465.647 12.0078C466.091 11.8065 466.566 11.7058 467.088 11.7058C467.719 11.7058 468.264 11.8142 468.731 12.0388C469.198 12.2556 469.588 12.5577 469.899 12.9448C470.211 13.332 470.437 13.7812 470.592 14.2923C470.748 14.8034 470.826 15.3532 470.826 15.9339C470.826 16.4683 470.756 16.9871 470.616 17.4827C470.476 17.9861 470.265 18.4275 469.985 18.8146C469.705 19.2018 469.346 19.5038 468.91 19.7362C468.474 19.9685 467.968 20.0846 467.376 20.0846C467.119 20.0846 466.862 20.0614 466.605 20.0149C466.348 19.9685 466.099 19.891 465.865 19.7904C465.632 19.6897 465.406 19.558 465.211 19.3954C465.009 19.2328 464.845 19.047 464.705 18.8379H464.674V22.8027H462.914V11.9227ZM469.066 15.903C469.066 15.5468 469.019 15.1983 468.926 14.8576C468.832 14.5168 468.692 14.2226 468.505 13.9593C468.318 13.696 468.085 13.4869 467.812 13.332C467.532 13.1772 467.213 13.092 466.854 13.092C466.115 13.092 465.554 13.3475 465.18 13.8586C464.806 14.3697 464.619 15.0512 464.619 15.903C464.619 16.3057 464.666 16.6774 464.767 17.0181C464.869 17.3588 465.009 17.6531 465.211 17.9009C465.406 18.1487 465.64 18.3423 465.912 18.4817C466.185 18.6288 466.504 18.6985 466.862 18.6985C467.267 18.6985 467.602 18.6133 467.882 18.4507C468.163 18.2881 468.389 18.0712 468.568 17.8157C468.747 17.5524 468.879 17.2581 468.957 16.9252C469.027 16.5922 469.066 16.2514 469.066 15.903ZM472.173 8.89484H473.933V10.552H472.173V8.89484ZM472.173 11.9227H473.933V19.8678H472.173V11.9227ZM475.506 8.89484H477.266V19.8678H475.506V8.89484ZM482.663 20.0846C482.025 20.0846 481.456 19.9762 480.958 19.7671C480.459 19.558 480.039 19.2638 479.688 18.8998C479.346 18.5281 479.081 18.0867 478.902 17.5756C478.723 17.0645 478.629 16.4992 478.629 15.8875C478.629 15.2835 478.723 14.7259 478.902 14.2148C479.081 13.7037 479.346 13.2623 479.688 12.8906C480.031 12.5189 480.459 12.2324 480.958 12.0233C481.456 11.8142 482.025 11.7058 482.663 11.7058C483.302 11.7058 483.87 11.8142 484.369 12.0233C484.867 12.2324 485.288 12.5267 485.638 12.8906C485.981 13.2623 486.245 13.7037 486.425 14.2148C486.604 14.7259 486.697 15.2835 486.697 15.8875C486.697 16.4992 486.604 17.0645 486.425 17.5756C486.245 18.0867 485.981 18.5281 485.638 18.8998C485.295 19.2715 484.867 19.558 484.369 19.7671C483.87 19.9762 483.302 20.0846 482.663 20.0846ZM482.663 18.6985C483.053 18.6985 483.395 18.6133 483.683 18.4507C483.971 18.2881 484.205 18.0712 484.392 17.808C484.579 17.5447 484.711 17.2427 484.805 16.9097C484.89 16.5767 484.937 16.236 484.937 15.8875C484.937 15.5468 484.89 15.2138 484.805 14.873C484.719 14.5323 484.579 14.2381 484.392 13.9748C484.205 13.7115 483.971 13.5024 483.683 13.3398C483.395 13.1772 483.053 13.092 482.663 13.092C482.274 13.092 481.931 13.1772 481.643 13.3398C481.355 13.5024 481.121 13.7192 480.934 13.9748C480.747 14.2381 480.615 14.5323 480.522 14.873C480.436 15.2138 480.389 15.5468 480.389 15.8875C480.389 16.236 480.436 16.5767 480.522 16.9097C480.607 17.2427 480.747 17.5447 480.934 17.808C481.121 18.0712 481.355 18.2881 481.643 18.4507C481.931 18.621 482.274 18.6985 482.663 18.6985ZM487.211 11.9227H488.543V9.53757H490.303V11.9227H491.891V13.2314H490.303V17.475C490.303 17.6608 490.311 17.8157 490.326 17.9551C490.342 18.0867 490.381 18.2029 490.435 18.2958C490.49 18.3887 490.575 18.4584 490.692 18.5049C490.809 18.5514 490.957 18.5746 491.159 18.5746C491.284 18.5746 491.409 18.5746 491.533 18.5668C491.658 18.5591 491.782 18.5436 491.907 18.5126V19.8678C491.712 19.891 491.518 19.9065 491.339 19.9298C491.152 19.953 490.965 19.9607 490.77 19.9607C490.303 19.9607 489.929 19.9143 489.649 19.8291C489.368 19.7439 489.142 19.6123 488.987 19.4419C488.823 19.2715 488.722 19.0624 488.66 18.8069C488.605 18.5514 488.566 18.2571 488.558 17.9319V13.2469H487.227V11.9227L487.211 11.9227Z" fill="black"/>
<path d="M424.801 8.89485H416.734L414.242 1.25946L411.742 8.89485L403.674 8.8871L410.208 13.6108L407.708 21.2385L414.242 16.5225L420.768 21.2385L418.275 13.6108L424.801 8.89485Z" fill="#00B67A"/>
<path d="M418.836 15.3376L418.275 13.6108L414.241 16.5224L418.836 15.3376Z" fill="#005128"/>
<defs>
<clipPath id="clip0_24741_243">
<rect width="106.667" height="20" fill="white" transform="translate(87 2)"/>
</clipPath>
</defs>
</svg>
