<svg width="280" height="73" viewBox="0 0 280 73" fill="none" xmlns="http://www.w3.org/2000/svg">
<g clip-path="url(#clip0_20726_12108)">
<path d="M44.2491 32.5786H4.02246C5.74646 37.3684 8.23668 41.7751 10.9185 45.9901H37.7362L44.2491 32.5786Z" fill="#12BDCD"/>
<path d="M52.8693 15.1436H1.14933C0.574666 15.1436 0 15.5268 0 16.2932V16.4848C0.574666 20.5082 1.34089 24.5317 2.68178 28.5551H46.548L52.8693 15.1436Z" fill="#12BDCD"/>
<path d="M35.8206 50.2052H14.1748C18.1975 55.1866 22.7948 59.7848 27.9668 63.4251C28.5415 63.8083 29.1161 63.6167 29.4992 63.2335V63.0419L35.8206 50.2052Z" fill="#12BDCD"/>
<path d="M90.7969 32.5786H131.024C129.3 37.3684 126.809 41.7751 124.128 45.9901H97.3098L90.7969 32.5786Z" fill="#12BDCD"/>
<path d="M82.3691 15.1436H134.089C134.664 15.1436 135.238 15.7184 135.238 16.2932V16.4848C134.664 20.5082 133.898 24.5317 132.557 28.5551H88.6905L82.3691 15.1436Z" fill="#12BDCD"/>
<path d="M99.417 50.2052H121.063C117.04 55.1866 112.443 59.7848 107.271 63.4251C106.696 63.8083 106.121 63.6167 105.738 63.2335V63.0419L99.417 50.2052Z" fill="#12BDCD"/>
<path d="M61.2981 50.2052L67.8109 35.6441L74.3238 50.2052H61.2981ZM68.5772 0.582542C68.3856 0.00776304 67.8109 -0.18383 67.2363 0.199356C67.0447 0.390949 66.8532 0.390949 66.8532 0.582542L32.1816 72.0468H51.5287L55.3598 63.6167H79.8789L83.71 72.0468H103.057L68.5772 0.582542Z" fill="#12BDCD"/>
<g clip-path="url(#clip1_20726_12108)">
<path d="M142.857 62.0853V49.7768C142.857 49.6485 142.962 49.5436 143.09 49.5436H145.352C145.48 49.5436 145.585 49.6485 145.585 49.7768V62.0853C145.585 62.2136 145.48 62.3185 145.352 62.3185H143.09C142.962 62.3185 142.857 62.2136 142.857 62.0853Z" fill="#12BDCD"/>
<path d="M152.563 55.7899L151.731 55.0622V62.0865C151.731 62.2147 151.626 62.3197 151.498 62.3197H149.289C149.161 62.3197 149.057 62.2147 149.057 62.0865V49.8911C149.057 49.6859 149.301 49.5809 149.45 49.722L156.141 56.0733L156.956 56.8011V49.7768C156.956 49.6485 157.061 49.5436 157.189 49.5436H159.416C159.544 49.5436 159.649 49.6485 159.649 49.7768V61.9722C159.649 62.1774 159.404 62.2824 159.255 62.1413L152.564 55.7899H152.563Z" fill="#12BDCD"/>
<path d="M162.534 61.6853V59.5872C162.534 59.4158 162.711 59.305 162.867 59.3761C163.702 59.7633 164.729 60.0724 165.74 60.1353C166.148 60.1528 166.538 60.1353 166.874 60.0642C167.848 59.9219 168.415 59.5499 168.415 58.9283C168.415 58.0769 167.654 57.6326 165.901 56.9947C163.669 56.1783 162.358 55.2383 162.358 53.0201C162.358 50.8019 164.235 49.2952 166.98 49.2952C168.179 49.2952 169.363 49.5459 170.161 49.8713C170.25 49.9074 170.309 49.9926 170.309 50.0882V52.0661C170.309 52.2387 170.131 52.3495 169.975 52.2761C169.232 51.9227 168.199 51.6731 167.192 51.6731C165.881 51.6731 165.031 52.1874 165.031 53.0038C165.031 53.749 165.722 54.2633 167.457 54.9199C169.689 55.7899 171.071 56.7299 171.071 58.877C171.071 61.1838 169.335 62.5681 166.325 62.5681C164.945 62.5681 163.597 62.28 162.676 61.901C162.59 61.866 162.534 61.7797 162.534 61.6864V61.6853Z" fill="#12BDCD"/>
<path d="M184.124 57.6699C184.124 60.6508 182.158 62.5669 178.793 62.5669C175.427 62.5669 173.461 60.6508 173.461 57.6699V49.7768C173.461 49.6485 173.566 49.5436 173.694 49.5436H175.956C176.084 49.5436 176.188 49.6485 176.188 49.7768V57.404C176.188 58.8735 177.377 60.0829 178.844 60.0654C180.493 60.0455 181.396 59.0554 181.396 57.404V49.7768C181.396 49.6485 181.5 49.5436 181.628 49.5436H183.89C184.018 49.5436 184.123 49.6485 184.123 49.7768V57.6699H184.124Z" fill="#12BDCD"/>
<path d="M191.899 49.5436C194.857 49.5436 196.823 51.0165 196.823 53.749C196.823 55.5089 195.891 56.6984 194.623 57.2886C194.502 57.3445 194.454 57.4927 194.517 57.6104L196.884 61.9745C196.967 62.1296 196.856 62.3185 196.679 62.3185H194.326C194.238 62.3185 194.157 62.2684 194.118 62.1903L191.998 57.9755C191.958 57.8973 191.878 57.8472 191.789 57.8472H190.324C190.196 57.8472 190.091 57.9521 190.091 58.0804V62.0853C190.091 62.2136 189.986 62.3185 189.858 62.3185H187.65C187.522 62.3185 187.417 62.2136 187.417 62.0853V49.7768C187.417 49.6485 187.522 49.5436 187.65 49.5436H191.898H191.899ZM190.092 51.8329V55.6477H192.041C193.246 55.6477 194.078 55.0447 194.078 53.749C194.078 52.4533 193.21 51.8329 191.97 51.8329H190.092Z" fill="#12BDCD"/>
<path d="M236.442 52.6843C235.681 52.2936 234.476 51.7967 232.917 51.7967C230.332 51.7967 228.702 53.6604 228.702 55.9311C228.702 58.2017 230.314 60.0654 232.829 60.0654C234.476 60.0654 235.733 59.586 236.531 59.1779V61.7156C235.875 62.0701 234.423 62.5669 232.634 62.5669C228.791 62.5669 225.975 59.6747 225.975 55.9311C225.975 52.1874 228.792 49.2952 232.723 49.2952C234.512 49.2952 235.787 49.827 236.442 50.1827V52.6843Z" fill="#12BDCD"/>
<path d="M239.152 62.0853V49.7768C239.152 49.6485 239.257 49.5436 239.385 49.5436H247.12C247.248 49.5436 247.352 49.6485 247.352 49.7768V51.5997C247.352 51.7279 247.248 51.8329 247.12 51.8329H241.88V54.7427H246.287C246.415 54.7427 246.52 54.8476 246.52 54.9759V56.7101C246.52 56.8384 246.415 56.9434 246.287 56.9434H241.88V60.0304H247.385C247.513 60.0304 247.618 60.1353 247.618 60.2636V62.0865C247.618 62.2147 247.513 62.3197 247.385 62.3197H239.385C239.257 62.3197 239.152 62.2147 239.152 62.0865V62.0853Z" fill="#12BDCD"/>
<path d="M204.256 49.7838C204.341 49.6077 204.591 49.6077 204.675 49.7838L210.549 61.985C210.624 62.1401 210.511 62.3185 210.34 62.3185H208.008C207.917 62.3185 207.834 62.2649 207.796 62.1821L206.893 60.2018C206.854 60.119 206.772 60.0654 206.681 60.0654H202.217C202.126 60.0654 202.042 60.1202 202.004 60.2041L201.135 62.1797C201.098 62.2649 201.014 62.3185 200.922 62.3185H198.591C198.42 62.3185 198.307 62.1401 198.382 61.985L204.256 49.7838ZM206.015 58.1492C205.43 56.8185 204.864 55.4704 204.474 54.352C204.102 55.2395 203.428 56.9422 202.897 58.1492H206.015Z" fill="#12BDCD"/>
<path d="M216.217 55.7899L215.385 55.0622V62.0865C215.385 62.2147 215.28 62.3197 215.152 62.3197H212.944C212.816 62.3197 212.711 62.2147 212.711 62.0865V49.8911C212.711 49.6859 212.955 49.5809 213.104 49.722L219.796 56.0733L220.611 56.8011V49.7768C220.611 49.6485 220.715 49.5436 220.843 49.5436H223.07C223.198 49.5436 223.303 49.6485 223.303 49.7768V61.9722C223.303 62.1774 223.059 62.2824 222.91 62.1413L216.218 55.7899H216.217Z" fill="#12BDCD"/>
</g>
<path fill-rule="evenodd" clip-rule="evenodd" d="M154.111 15.3621C153.92 15.1678 153.73 15.1678 153.73 15.1678L153.539 15.3621L142.857 37.7117H148.77L149.915 34.9909H157.354L158.498 37.7117H164.411L154.111 15.3621ZM151.822 30.9097L153.73 26.4397L155.637 30.9097H151.822ZM174.902 37.9061C168.798 38.1004 163.839 33.2418 163.648 27.0228V26.6341C163.457 20.6094 168.226 15.5564 174.33 15.3621H174.711C178.335 15.1678 181.959 16.9169 184.057 20.0264L179.48 22.9415C178.526 21.1924 176.619 20.2207 174.52 20.4151C171.278 20.4151 169.37 23.1359 169.37 26.4397C169.37 29.7436 171.278 32.6588 174.711 32.6588C176.809 32.8531 178.907 31.687 179.861 29.5492L184.248 32.6588C182.341 36.157 178.717 38.1004 174.902 37.9061ZM186.537 15.7508H201.606V20.6094H192.259V24.1076H200.08V28.7719H192.259V32.6588H201.987V37.5174H186.537V15.7508ZM226.783 15.7508H235.558C239.754 15.7508 242.996 17.6942 242.996 21.1924C243.378 23.3302 242.234 25.468 240.135 26.2454C242.424 26.6341 243.95 28.7719 243.95 31.104C243.95 35.3796 241.28 37.7117 235.939 37.7117H226.974L226.783 15.7508ZM235.176 24.3019C236.893 24.3019 237.465 23.5246 237.465 22.1642C237.465 20.8037 236.511 20.4151 235.367 20.4151H232.506V24.3019H235.176ZM235.939 33.0475C238.228 33.0475 238.419 31.687 238.419 30.521C238.419 29.3549 238.037 28.3832 235.939 28.3832H232.506V33.0475H235.939ZM247.002 15.7508H252.724V32.6588H261.88V37.5174H247.002V15.7508ZM264.55 15.7508H279.619V20.6094H270.272V24.3019H278.093V28.9662H270.272V32.6588H280V37.5174H264.55V15.7508ZM214.767 15.3621C214.767 15.1678 214.576 15.1678 214.385 15.1678L214.195 15.3621L203.513 37.7117H209.426L210.571 34.9909H218.009L219.154 37.7117H225.067L214.767 15.3621ZM212.478 30.9097L214.385 26.4397L216.293 30.9097H212.478Z" fill="#12BDCD"/>
</g>
<defs>
<clipPath id="clip0_20726_12108">
<rect width="280" height="72.0468" fill="white"/>
</clipPath>
<clipPath id="clip1_20726_12108">
<rect width="104.762" height="13.2718" fill="white" transform="translate(142.857 49.2952)"/>
</clipPath>
</defs>
</svg>
