<svg width="276" height="60" viewBox="0 0 276 60" fill="none" xmlns="http://www.w3.org/2000/svg">
<g clip-path="url(#clip0_20726_14224)">
<path fill-rule="evenodd" clip-rule="evenodd" d="M127.502 15.199C127.439 15.0545 127.313 14.986 127.186 15.0024C127.059 14.986 126.933 15.0545 126.87 15.199L114.449 40.3376H121.41L122.791 37.3466H131.582L132.962 40.3376H139.923L127.502 15.199ZM124.876 32.6671L127.186 27.5505L129.496 32.6671H124.876ZM151.806 40.5C144.728 40.5 138.687 35.2634 138.687 27.8097C138.687 20.3551 144.691 15.1558 151.435 15.1558C156.883 15.1558 160.218 17.4103 162.331 20.4646L157.253 23.8459C156.291 22.3921 154.733 20.9011 151.547 20.9011C147.841 20.9011 145.58 23.9189 145.58 27.8097C145.58 31.7004 147.914 34.754 151.769 34.754C155.03 34.754 156.623 33.3002 157.698 31.3362L162.886 34.6088C160.404 38.7185 156.92 40.5 151.806 40.5ZM165.479 15.6124H183.156V21.1759H172.224V25.2059H181.342V30.4782H172.224V34.7749H183.676V40.3376H165.479V15.6124ZM212.728 15.6124H223.03C228.033 15.6124 231.756 17.8668 231.756 21.6481C231.756 25.4241 230.081 26.6158 228.451 27.3792C231.193 28.1433 232.856 30.0038 232.856 32.9204C232.856 37.6475 229.738 40.3376 223.475 40.3376H212.728V15.6124ZM222.512 25.3206C224.622 25.3206 225.093 24.3427 225.093 22.8479C225.093 21.3584 224.069 20.8482 222.586 20.8482H219.251V25.3206H222.512ZM223.327 35.1018C225.921 35.1018 226.248 33.54 226.248 32.3022C226.248 31.1977 225.881 29.901 223.327 29.901H219.251V35.1018H223.327ZM236.372 15.6124H243.115V34.7749H253.826V40.3376H236.372V15.6124ZM256.938 15.6124H274.615V21.1759H263.682V25.2714H272.799V30.5445H263.682V34.7749H275.133V40.3376H256.938V15.6124ZM198.477 15.199C198.414 15.0545 198.288 14.986 198.162 15.0024C198.035 14.986 197.908 15.0545 197.845 15.199L185.425 40.3376H192.386L193.767 37.3466H202.557L203.937 40.3376H210.898L198.477 15.199ZM195.851 32.6671L198.162 27.5505L200.472 32.6671H195.851Z" fill="#12BDCD"/>
<mask id="mask0_20726_14224" style="mask-type:alpha" maskUnits="userSpaceOnUse" x="0" y="13" width="45" height="26">
<path d="M0.0454788 13.1074H44.016V38.4942H0.0454788V13.1074Z" fill="white"/>
</mask>
<g mask="url(#mask0_20726_14224)">
<path fill-rule="evenodd" clip-rule="evenodd" d="M36.9573 27.5127H3.42287C4.94634 31.3999 6.89501 35.0779 9.2075 38.4942H31.5774L36.9573 27.5127Z" fill="#12BDCD"/>
<path fill-rule="evenodd" clip-rule="evenodd" d="M44.016 13.1074H0.909536C0.36609 13.1074 -0.0606319 13.5769 0.00682503 14.1102C0.435821 17.5129 1.17027 20.8204 2.18136 24.0087H38.6748L44.016 13.1074Z" fill="#12BDCD"/>
</g>
<path fill-rule="evenodd" clip-rule="evenodd" d="M29.5598 42H11.3692C14.6911 46.2059 18.5934 49.9342 22.9517 53.0725C23.4215 53.4096 24.0812 53.2502 24.3336 52.7331L29.5598 42Z" fill="#12BDCD"/>
<path fill-rule="evenodd" clip-rule="evenodd" d="M75.7943 27.75H109.144C107.628 31.7323 105.691 35.5002 103.392 39H81.1452L75.7943 27.75Z" fill="#12BDCD"/>
<path fill-rule="evenodd" clip-rule="evenodd" d="M68.9728 12.75H112.025C112.568 12.75 112.994 13.2345 112.927 13.7848C112.498 17.2964 111.765 20.7098 110.755 24H74.3073L68.9728 12.75Z" fill="#12BDCD"/>
<path fill-rule="evenodd" clip-rule="evenodd" d="M82.8364 41.998H100.916C97.614 46.1523 93.7356 49.8348 89.4032 52.9345C88.9371 53.2675 88.2815 53.11 88.0306 52.5993L82.8364 41.998Z" fill="#12BDCD"/>
<path fill-rule="evenodd" clip-rule="evenodd" d="M57.1595 1.10001C57.0133 0.761757 56.7192 0.600507 56.4251 0.639507C56.1303 0.600507 55.8369 0.761757 55.6899 1.10001L26.835 59.9998H43.0065L46.2141 52.991H66.6361L69.8437 59.9998H86.0145L57.1595 1.10001ZM51.0573 42.0268L56.4251 30.0388L61.7921 42.0268H51.0573Z" fill="#12BDCD"/>
</g>
<defs>
<clipPath id="clip0_20726_14224">
<rect width="276" height="60" fill="white"/>
</clipPath>
</defs>
</svg>
