<svg width="280" height="73" viewBox="0 0 280 73" fill="none" xmlns="http://www.w3.org/2000/svg">
<g clip-path="url(#clip0_20726_13396)">
<path d="M44.2501 32.5786H4.02344C5.74744 37.3684 8.23766 41.7751 10.9194 45.9901H37.7372L44.2501 32.5786Z" fill="#12BDCD"/>
<path d="M52.8693 15.1436H1.14933C0.574666 15.1436 0 15.5268 0 16.2932V16.4848C0.574666 20.5082 1.34089 24.5317 2.68178 28.5551H46.548L52.8693 15.1436Z" fill="#12BDCD"/>
<path d="M35.8215 50.2052H14.1758C18.1984 55.1866 22.7958 59.7848 27.9678 63.4251C28.5424 63.8083 29.1171 63.6167 29.5002 63.2335V63.0419L35.8215 50.2052Z" fill="#12BDCD"/>
<path d="M90.7969 32.5786H131.024C129.3 37.3684 126.809 41.7751 124.128 45.9901H97.3098L90.7969 32.5786Z" fill="#12BDCD"/>
<path d="M82.3691 15.1436H134.089C134.664 15.1436 135.238 15.7184 135.238 16.2932V16.4848C134.664 20.5082 133.898 24.5317 132.557 28.5551H88.6905L82.3691 15.1436Z" fill="#12BDCD"/>
<path d="M99.418 50.2052H121.064C117.041 55.1866 112.444 59.7848 107.272 63.4251C106.697 63.8083 106.122 63.6167 105.739 63.2335V63.0419L99.418 50.2052Z" fill="#12BDCD"/>
<path d="M61.2981 50.2052L67.8109 35.6441L74.3238 50.2052H61.2981ZM68.5772 0.582542C68.3856 0.00776304 67.8109 -0.18383 67.2363 0.199356C67.0447 0.390949 66.8532 0.390949 66.8532 0.582542L32.1816 72.0468H51.5287L55.3598 63.6167H79.8789L83.71 72.0468H103.057L68.5772 0.582542Z" fill="#12BDCD"/>
<g clip-path="url(#clip1_20726_13396)">
<path d="M146.287 55.7106L145.59 55.1334V62.0865C145.59 62.2147 145.48 62.3197 145.346 62.3197H143.102C142.967 62.3197 142.857 62.2147 142.857 62.0865V49.9109C142.857 49.7034 143.12 49.5996 143.274 49.7465L149.115 55.3211C149.21 55.4133 149.366 55.4133 149.462 55.3211L155.302 49.7465C155.456 49.5996 155.719 49.7034 155.719 49.9109V62.0853C155.719 62.2136 155.609 62.3185 155.474 62.3185H153.23C153.096 62.3185 152.986 62.2136 152.986 62.0853V55.1322L152.29 55.7095L152.27 55.7281C151.347 56.6938 150.406 57.6583 149.464 58.6087C149.367 58.7055 149.205 58.7055 149.11 58.6087C148.17 57.6583 147.246 56.6926 146.304 55.727C146.298 55.7211 146.291 55.7153 146.285 55.7095L146.287 55.7106Z" fill="#12BDCD"/>
<path d="M165.513 49.2952C169.547 49.2952 172.52 52.2411 172.52 55.9311C172.52 59.621 169.565 62.5669 165.513 62.5669C161.461 62.5669 158.506 59.6572 158.506 55.9311C158.506 52.2049 161.462 49.2952 165.513 49.2952ZM165.513 60.0654C167.93 60.0654 169.64 58.2204 169.64 55.9311C169.64 53.6417 167.93 51.7967 165.513 51.7967C163.097 51.7967 161.386 53.6604 161.386 55.9311C161.386 58.2017 163.097 60.0654 165.513 60.0654Z" fill="#12BDCD"/>
<path d="M180.029 49.5436C183.134 49.5436 185.197 51.0165 185.197 53.749C185.197 55.5089 184.218 56.6984 182.888 57.2886C182.761 57.3445 182.711 57.4927 182.777 57.6104L185.26 61.9745C185.348 62.1296 185.231 62.3185 185.045 62.3185H182.577C182.484 62.3185 182.399 62.2684 182.358 62.1903L180.133 57.9755C180.092 57.8973 180.007 57.8472 179.915 57.8472H178.377C178.242 57.8472 178.132 57.9521 178.132 58.0804V62.0853C178.132 62.2136 178.022 62.3185 177.888 62.3185H175.57C175.436 62.3185 175.326 62.2136 175.326 62.0853V49.7768C175.326 49.6485 175.436 49.5436 175.57 49.5436H180.028H180.029ZM178.133 51.8329V55.6477H180.178C181.443 55.6477 182.316 55.0447 182.316 53.749C182.316 52.4533 181.405 51.8329 180.104 51.8329H178.133Z" fill="#12BDCD"/>
<path d="M193.541 51.8329V62.0865C193.541 62.2147 193.431 62.3197 193.297 62.3197H190.923C190.789 62.3197 190.679 62.2147 190.679 62.0865V51.8329H187.188C187.053 51.8329 186.943 51.7279 186.943 51.5997V49.7768C186.943 49.6485 187.053 49.5436 187.188 49.5436H197.052C197.187 49.5436 197.297 49.6485 197.297 49.7768V51.5997C197.297 51.7279 197.187 51.8329 197.052 51.8329H193.543H193.541Z" fill="#12BDCD"/>
<path d="M218.404 49.7838C218.493 49.6077 218.756 49.6077 218.843 49.7838L225.008 61.985C225.086 62.1401 224.968 62.3185 224.788 62.3185H222.341C222.246 62.3185 222.159 62.2649 222.119 62.1821L221.171 60.2018C221.13 60.119 221.044 60.0654 220.948 60.0654H216.265C216.168 60.0654 216.08 60.1202 216.041 60.2041L215.128 62.1797C215.089 62.2649 215.001 62.3185 214.905 62.3185H212.459C212.28 62.3185 212.161 62.1401 212.239 61.985L218.404 49.7838ZM220.25 58.1492C219.636 56.8185 219.041 55.4704 218.632 54.352C218.242 55.2395 217.535 56.9422 216.978 58.1492H220.25Z" fill="#12BDCD"/>
<path d="M240.64 62.0853V49.7768C240.64 49.6485 240.75 49.5436 240.884 49.5436H249.001C249.135 49.5436 249.245 49.6485 249.245 49.7768V51.5997C249.245 51.7279 249.135 51.8329 249.001 51.8329H243.502V54.7427H248.127C248.262 54.7427 248.372 54.8476 248.372 54.9759V56.7101C248.372 56.8384 248.262 56.9434 248.127 56.9434H243.502V60.0304H249.279C249.414 60.0304 249.524 60.1353 249.524 60.2636V62.0865C249.524 62.2147 249.414 62.3197 249.279 62.3197H240.883C240.749 62.3197 240.639 62.2147 240.639 62.0865L240.64 62.0853Z" fill="#12BDCD"/>
<path d="M206.357 56.4279V58.1667C206.357 58.26 206.436 58.3358 206.534 58.3358H207.835V59.8333C207.371 59.9756 206.664 60.0817 206.013 60.0817C203.375 60.0817 201.701 58.2367 201.701 55.9299C201.701 53.6231 203.373 51.7956 206.143 51.7956C207.782 51.7956 209.038 52.2061 209.909 52.5746C210.026 52.6248 210.157 52.542 210.157 52.4195V50.2736C210.157 50.2072 210.116 50.1465 210.052 50.1185C209.265 49.7815 207.858 49.2952 205.957 49.2952C201.812 49.2952 198.82 52.2049 198.82 55.9311C198.82 59.6572 201.775 62.5669 206.013 62.5669C207.605 62.5669 209.284 62.1972 210.47 61.6386C210.53 61.6106 210.568 61.5511 210.568 61.487V58.337V56.4279C210.568 56.3346 210.488 56.2588 210.39 56.2588H206.535C206.437 56.2588 206.358 56.3346 206.358 56.4279H206.357Z" fill="#12BDCD"/>
<path d="M233.382 56.4279V58.1667C233.382 58.26 233.461 58.3358 233.559 58.3358H234.86V59.8333C234.396 59.9756 233.69 60.0817 233.039 60.0817C230.4 60.0817 228.726 58.2367 228.726 55.9299C228.726 53.6231 230.399 51.7956 233.168 51.7956C234.808 51.7956 236.063 52.2061 236.934 52.5746C237.052 52.6248 237.182 52.542 237.182 52.4195V50.2736C237.182 50.2072 237.141 50.1465 237.077 50.1185C236.291 49.7815 234.883 49.2952 232.982 49.2952C228.837 49.2952 225.846 52.2049 225.846 55.9311C225.846 59.6572 228.801 62.5669 233.039 62.5669C234.63 62.5669 236.309 62.1972 237.495 61.6386C237.555 61.6106 237.593 61.5511 237.593 61.487V58.337V56.4279C237.593 56.3346 237.513 56.2588 237.416 56.2588H233.56C233.463 56.2588 233.383 56.3346 233.383 56.4279H233.382Z" fill="#12BDCD"/>
</g>
<path fill-rule="evenodd" clip-rule="evenodd" d="M154.111 15.3621C153.92 15.1678 153.73 15.1678 153.73 15.1678L153.539 15.3621L142.857 37.7117H148.77L149.915 34.9909H157.354L158.498 37.7117H164.411L154.111 15.3621ZM151.822 30.9097L153.73 26.4397L155.637 30.9097H151.822ZM174.902 37.9061C168.798 38.1004 163.839 33.2418 163.648 27.0228V26.6341C163.457 20.6094 168.226 15.5564 174.33 15.3621H174.711C178.335 15.1678 181.959 16.9169 184.057 20.0264L179.48 22.9415C178.526 21.1924 176.619 20.2207 174.52 20.4151C171.278 20.4151 169.37 23.1359 169.37 26.4397C169.37 29.7436 171.278 32.6588 174.711 32.6588C176.809 32.8531 178.907 31.687 179.861 29.5492L184.248 32.6588C182.341 36.157 178.717 38.1004 174.902 37.9061ZM186.537 15.7508H201.606V20.6094H192.259V24.1076H200.08V28.7719H192.259V32.6588H201.987V37.5174H186.537V15.7508ZM226.783 15.7508H235.558C239.754 15.7508 242.996 17.6942 242.996 21.1924C243.378 23.3302 242.234 25.468 240.135 26.2454C242.424 26.6341 243.95 28.7719 243.95 31.104C243.95 35.3796 241.28 37.7117 235.939 37.7117H226.974L226.783 15.7508ZM235.176 24.3019C236.893 24.3019 237.465 23.5246 237.465 22.1642C237.465 20.8037 236.511 20.4151 235.367 20.4151H232.506V24.3019H235.176ZM235.939 33.0475C238.228 33.0475 238.419 31.687 238.419 30.521C238.419 29.3549 238.037 28.3832 235.939 28.3832H232.506V33.0475H235.939ZM247.002 15.7508H252.724V32.6588H261.88V37.5174H247.002V15.7508ZM264.55 15.7508H279.619V20.6094H270.272V24.3019H278.093V28.9662H270.272V32.6588H280V37.5174H264.55V15.7508ZM214.767 15.3621C214.767 15.1678 214.576 15.1678 214.385 15.1678L214.195 15.3621L203.513 37.7117H209.426L210.571 34.9909H218.009L219.154 37.7117H225.067L214.767 15.3621ZM212.478 30.9097L214.385 26.4397L216.293 30.9097H212.478Z" fill="#12BDCD"/>
</g>
<defs>
<clipPath id="clip0_20726_13396">
<rect width="280" height="72.0468" fill="white"/>
</clipPath>
<clipPath id="clip1_20726_13396">
<rect width="106.667" height="13.2718" fill="white" transform="translate(142.857 49.2952)"/>
</clipPath>
</defs>
</svg>
