<?xml version="1.0" encoding="UTF-8"?>
<svg id="Layer_2" data-name="Layer 2" xmlns="http://www.w3.org/2000/svg" viewBox="0 0 83.33 66.66">
  <g id="Layer_1-2" data-name="Layer 1">
    <path d="M82.11,51.22c1.63,1.63,1.63,4.27,0,5.89l-8.33,8.33c-.81.81-1.88,1.22-2.95,1.22s-2.13-.41-2.95-1.22c-1.63-1.63-1.63-4.27,0-5.89l1.37-1.37c-7.96-.68-15.52-3.89-21.55-9.23-1.72-1.53-1.88-4.16-.36-5.88,1.54-1.72,4.16-1.88,5.88-.36,4.4,3.9,9.86,6.32,15.63,7.04l-.97-.97c-1.63-1.63-1.63-4.27,0-5.89,1.63-1.63,4.27-1.63,5.89,0l8.33,8.34ZM4.17,16.66h6.73c7.09,0,13.91,2.59,19.22,7.29.79.7,1.78,1.05,2.76,1.05,1.15,0,2.3-.47,3.12-1.4,1.53-1.72,1.37-4.36-.36-5.88-6.83-6.05-15.62-9.38-24.74-9.38h-6.73c-2.3,0-4.17,1.87-4.17,4.17s1.87,4.16,4.17,4.16h0ZM68.84,16.93l-.95.95c-1.63,1.63-1.63,4.27,0,5.89.81.81,1.88,1.22,2.95,1.22s2.13-.41,2.95-1.22l8.33-8.33c1.63-1.63,1.63-4.27,0-5.89l-8.33-8.33c-1.63-1.63-4.27-1.63-5.89,0-1.63,1.63-1.63,4.27,0,5.89l1.45,1.45c-14.05,1.16-26.23,9.95-31.54,23.22-4.43,11.07-14.99,18.22-26.9,18.22h-6.73C1.87,50,0,51.86,0,54.17s1.87,4.16,4.17,4.16h6.73c15.34,0,28.94-9.2,34.64-23.45,3.97-9.93,12.9-16.66,23.31-17.94h0Z"/>
  </g>
</svg>